<?xml version="1.0" standalone="no"?>
<!DOCTYPE svg PUBLIC "-//W3C//DTD SVG 20010904//EN"
 "http://www.w3.org/TR/2001/REC-SVG-20010904/DTD/svg10.dtd">
<svg version="1.0" xmlns="http://www.w3.org/2000/svg"
 width="750.000000pt" height="500.000000pt" viewBox="0 0 750.000000 500.000000"
 preserveAspectRatio="xMidYMid meet">
<metadata>
Created by potrace 1.16, written by Peter Selinger 2001-2019
</metadata>
<g transform="translate(0.000000,500.000000) scale(0.100000,-0.100000)"
fill="#000000" stroke="none">
<path d="M3025 4890 l-1090 -5 -7 -45 c-3 -25 -7 -283 -8 -575 0 -291 -3 -786
-5 -1100 -2 -313 -7 -950 -10 -1415 -3 -465 -8 -1021 -11 -1236 l-7 -391 48
-6 c61 -9 188 -9 210 -1 11 5 2 13 -33 29 -58 27 -84 58 -112 131 -27 74 -25
120 8 185 24 48 34 58 92 86 56 27 76 31 140 31 114 -1 186 -44 220 -132 6
-16 17 -26 30 -26 17 0 20 -6 20 -44 0 -33 -4 -45 -17 -48 -9 -2 -28 -25 -43
-53 -28 -52 -87 -102 -130 -109 -14 -3 -54 -5 -90 -6 -57 -2 -61 -3 -30 -10
19 -5 38 -6 42 -4 3 2 9 0 13 -6 6 -10 -20 -14 -57 -11 -12 2 -16 -3 -12 -13
9 -24 71 -21 86 4 15 23 40 27 32 5 -5 -13 42 -15 387 -15 217 0 946 -1 1620
-2 674 0 1231 2 1238 6 9 6 10 191 5 779 -5 661 -8 2723 -4 3691 0 164 -2 302
-6 305 -7 7 -1046 8 -2519 1z m-639 -85 c37 -19 54 -36 72 -70 12 -25 22 -52
22 -60 0 -9 11 -20 25 -25 29 -11 34 -45 6 -53 -10 -2 -21 -17 -25 -33 -12
-49 -45 -91 -93 -123 -44 -29 -52 -31 -142 -31 -78 0 -104 4 -135 21 -48 25
-58 19 -14 -10 18 -11 27 -21 20 -21 -7 0 -31 17 -53 38 -94 89 -96 235 -4
327 52 52 84 63 191 64 67 1 88 -3 130 -24z m1644 -45 c0 -22 15 -27 23 -7 6
16 84 21 174 11 l63 -6 0 -49 0 -49 -40 2 c-24 2 -40 8 -40 16 0 6 -5 12 -11
12 -6 0 -8 -7 -5 -15 8 -22 -21 -30 -58 -17 -18 7 -52 12 -77 13 -24 0 -57 3
-73 6 -25 4 -27 8 -23 33 3 15 1 32 -6 39 -6 6 -7 11 -1 12 22 2 46 8 52 13
11 12 22 5 22 -14z m-580 3 c0 -11 64 -10 71 0 3 5 21 4 40 0 30 -8 34 -14 37
-45 2 -28 -1 -37 -15 -41 -91 -25 -174 -30 -166 -11 3 9 -2 11 -18 7 -15 -4
-20 -3 -15 5 4 7 1 12 -8 12 -9 0 -16 -7 -16 -15 0 -8 -7 -15 -15 -15 -19 0
-22 96 -2 103 20 8 107 8 107 0z m-240 -17 c0 -3 -7 -12 -16 -21 -15 -15 -15
-17 0 -34 12 -13 16 -38 16 -99 0 -72 -3 -84 -25 -111 -46 -54 -174 -53 -175
2 -1 18 -3 16 -15 -10 -8 -18 -18 -33 -24 -33 -11 0 -101 115 -101 130 0 6 -4
10 -10 10 -5 0 -10 -22 -10 -49 0 -62 -7 -81 -31 -81 -22 0 -22 1 -20 155 1
70 6 112 13 117 16 9 47 -9 58 -35 10 -24 45 -67 54 -67 3 0 6 15 6 34 0 19 3
41 6 50 7 18 49 22 59 6 5 -8 11 -7 20 0 8 6 48 14 90 17 41 3 78 10 81 14 5
9 24 12 24 5z m-456 -45 c36 -38 32 -67 -9 -63 -17 2 -31 8 -33 13 -2 5 -17 9
-32 9 -35 0 -50 -23 -50 -77 0 -50 19 -76 50 -71 37 5 37 34 1 46 -56 20 -32
62 34 62 52 0 65 -13 65 -69 0 -64 -36 -101 -99 -101 -35 0 -51 6 -73 27 -26
25 -28 31 -28 114 0 85 1 88 31 113 44 38 105 36 143 -3z m2372 -33 c75 -29
164 -111 201 -186 24 -50 28 -70 30 -159 1 -56 4 -107 7 -112 10 -15 -54 -144
-83 -167 -10 -8 -11 -13 -2 -18 6 -4 8 -12 5 -18 -4 -7 -9 -6 -14 2 -5 8 -15
10 -26 6 -18 -7 -18 -8 1 -22 19 -14 19 -15 -9 -39 -27 -23 -46 -25 -46 -4 0
5 7 9 15 9 8 0 15 7 15 16 0 19 -8 17 -95 -20 -77 -33 -169 -35 -232 -6 -24
11 -63 29 -87 41 -155 71 -239 294 -176 463 30 80 127 180 205 211 82 33 208
35 291 3z m-1646 -140 c12 -8 30 -8 64 1 26 6 50 10 54 7 4 -2 6 -24 4 -49 -4
-43 -5 -45 -40 -51 -65 -10 -132 -7 -129 7 3 15 -53 12 -64 -4 -14 -24 -29 4
-28 51 2 44 5 49 28 53 34 6 89 -2 111 -15z m768 -280 c3 -62 -1 -67 -36 -42
-20 14 -22 14 -22 0 0 -21 -49 -21 -56 -1 -4 10 -14 13 -30 9 -14 -4 -31 -1
-39 6 -8 7 -15 9 -16 4 -1 -5 -5 2 -9 16 -8 25 -8 25 -9 2 -1 -20 -6 -23 -33
-20 -23 2 -32 7 -29 18 2 8 4 26 5 40 1 19 7 26 29 28 22 3 27 -1 27 -17 0
-26 4 -26 30 -3 25 21 70 29 135 22 l50 -5 3 -57z m-646 44 c5 -5 8 -25 6 -43
-3 -31 -6 -34 -38 -37 -61 -4 -79 -11 -82 -32 -2 -12 -7 -19 -13 -18 -5 2 -8
11 -7 22 2 11 -1 16 -7 12 -6 -4 -11 -16 -11 -27 0 -25 -17 -25 -25 0 -3 11
-15 23 -26 26 -10 4 -19 10 -19 15 0 6 11 5 26 0 33 -13 34 -13 28 5 -4 9 -19
15 -39 15 -20 0 -35 -6 -39 -15 -3 -8 -10 -15 -16 -15 -11 0 -14 93 -3 104 10
10 254 -1 265 -12z m-455 -108 c-26 -25 -47 -47 -47 -50 0 -2 13 -4 29 -4 30
0 81 -39 81 -63 0 -23 -24 -27 -56 -11 -59 31 -88 1 -82 -86 4 -56 26 -72 69
-47 41 23 69 22 69 -2 0 -30 -51 -61 -102 -61 -35 0 -50 6 -71 28 -25 26 -27
35 -27 107 l0 78 86 84 c47 47 89 81 92 78 4 -4 -15 -27 -41 -51z m-782 17
c41 -18 74 -52 107 -107 10 -16 26 -40 37 -54 21 -26 19 -70 -3 -70 -6 0 -24
-25 -40 -55 -33 -64 -65 -90 -127 -104 -147 -34 -288 10 -323 102 -44 115 3
239 109 288 55 26 184 26 240 0z m417 -103 l15 -22 23 22 c36 34 128 32 160
-3 19 -21 22 -29 13 -43 -12 -19 -24 -19 -70 -1 -49 20 -65 1 -61 -75 3 -54 5
-61 25 -64 12 -2 35 7 52 19 48 36 72 -2 29 -48 -17 -18 -32 -23 -74 -23 -45
0 -56 4 -73 26 -12 15 -21 41 -21 61 0 20 -4 32 -10 28 -5 -3 -10 -14 -10 -23
0 -16 -79 -92 -95 -92 -3 0 -24 14 -46 32 -46 37 -63 87 -53 154 7 46 29 69
53 55 9 -6 11 -23 6 -65 -6 -47 -4 -60 10 -76 24 -27 41 -25 61 5 12 18 15 36
10 65 -12 79 22 120 56 68z m720 -147 c-3 -12 22 -13 158 -8 l161 6 9 -25 c6
-14 10 -54 10 -90 l0 -64 -44 0 -43 0 -2 72 c-2 87 -11 104 -12 22 0 -32 -3
-53 -6 -46 -2 6 -13 12 -24 12 -10 0 -19 -6 -19 -12 0 -9 -4 -8 -11 2 -9 12
-10 12 -5 -3 3 -10 6 -22 6 -27 0 -5 8 -11 18 -13 13 -4 12 -5 -5 -6 -12 0
-24 5 -26 12 -3 7 -6 5 -6 -5 -1 -21 -41 -25 -42 -5 0 10 -2 10 -6 0 -2 -7
-11 -13 -19 -13 -10 0 -15 14 -16 48 l-1 47 -4 -45 c-3 -24 -10 -48 -16 -52
-23 -15 -56 -8 -71 14 l-16 22 0 -22 c0 -13 -6 -22 -15 -22 -8 0 -15 9 -15 20
0 11 -6 20 -14 20 -25 0 -46 -12 -46 -26 0 -8 -4 -14 -10 -14 -6 0 -10 40 -10
99 l0 98 43 11 c58 14 103 11 99 -7z m-1127 -364 c21 -12 53 -41 70 -64 16
-23 37 -42 46 -42 20 -1 29 -21 29 -62 0 -19 -5 -29 -15 -29 -8 0 -17 -12 -21
-27 -9 -41 -52 -111 -74 -123 -10 -5 -26 -7 -35 -4 -10 4 -15 2 -13 -6 8 -34
-187 -40 -251 -7 -18 9 -38 14 -44 10 -5 -3 -7 -1 -3 5 3 6 -5 19 -19 30 -16
13 -30 40 -40 79 -13 52 -13 65 -1 107 25 83 79 136 161 157 50 13 166 0 210
-24z m1120 -17 l32 0 2 -67 c2 -94 -9 -128 -40 -128 -15 0 -23 5 -21 14 2 11
-2 10 -22 -3 -32 -21 -36 -20 -36 4 0 11 -5 20 -11 20 -6 0 -13 -9 -16 -20 -6
-23 -18 -26 -29 -8 -9 14 -6 87 4 103 3 5 7 23 7 40 3 60 2 58 51 51 26 -3 61
-6 79 -6z m425 -38 c0 -26 7 -45 20 -57 15 -14 20 -31 20 -70 0 -28 -3 -54 -6
-57 -7 -8 -64 24 -64 35 0 14 -29 39 -38 33 -5 -3 -5 18 -1 47 4 31 2 57 -3
65 -7 8 -7 12 0 12 6 0 9 7 6 15 -5 12 2 15 30 15 35 0 36 -1 36 -38z m-1149
-14 c35 -49 5 -74 -55 -47 -13 6 -36 9 -50 5 -24 -6 -26 -10 -26 -66 0 -49 3
-61 20 -70 16 -9 28 -7 52 4 69 35 104 3 50 -46 -45 -40 -107 -40 -145 0 -26
27 -28 36 -29 115 -2 78 1 89 21 111 41 44 129 40 162 -6z m209 5 c11 -15 19
-34 18 -42 -4 -22 -42 -25 -72 -6 -20 13 -29 14 -46 5 -31 -17 -8 -40 41 -40
30 0 42 -6 58 -29 25 -35 26 -69 3 -96 -45 -50 -101 -58 -144 -20 -33 28 -38
65 -9 65 11 0 23 -4 26 -10 6 -9 85 -15 85 -6 0 22 -18 36 -55 42 -51 7 -71
26 -80 75 -6 31 -3 40 20 63 21 22 35 26 80 26 46 0 56 -4 75 -27z m1680 -46
c63 0 141 2 173 7 60 8 116 -5 118 -28 1 -6 2 -15 4 -21 1 -5 3 -16 3 -22 1
-7 11 -13 22 -13 26 0 27 -36 1 -50 -12 -6 -21 -23 -23 -42 -2 -27 -8 -33 -36
-40 -18 -5 -35 -15 -39 -23 -6 -18 -43 -20 -43 -3 0 6 12 35 27 65 22 43 25
56 14 62 -8 5 -11 16 -6 30 4 14 2 21 -8 21 -9 0 -14 -16 -16 -52 -3 -63 -8
-70 -52 -66 l-34 3 -3 73 c-3 83 -17 97 -21 20 -1 -28 -4 -55 -7 -60 -3 -4 0
-8 6 -8 7 0 10 -6 8 -12 -3 -9 -31 -14 -81 -15 -69 -3 -94 5 -68 22 10 6 4 65
-10 100 -5 14 -8 5 -9 -30 -1 -71 -9 -95 -32 -95 -36 0 -58 19 -58 50 0 17 -4
30 -9 30 -5 0 -7 -9 -4 -20 3 -11 1 -20 -5 -20 -6 0 -13 8 -15 18 -4 13 -5 12
-6 -5 0 -12 7 -26 16 -32 10 -5 14 -13 10 -17 -5 -5 -12 -2 -18 6 -8 13 -10
13 -19 0 -7 -11 -1 -22 21 -42 30 -28 45 -36 34 -19 -8 13 10 22 30 15 26 -10
11 -28 -29 -35 -33 -5 -39 -3 -46 16 -5 12 -18 25 -29 28 -15 3 -21 13 -21 31
0 14 -5 26 -11 26 -7 0 -9 17 -5 53 4 28 7 64 8 78 1 25 2 25 77 22 42 -2 128
-5 191 -6z m518 -170 c6 -7 12 -41 14 -77 2 -35 8 -65 14 -67 8 -3 10 13 6 47
-4 46 -2 54 24 81 24 25 35 29 79 29 43 0 56 -4 78 -28 54 -56 27 -192 -39
-192 -31 0 -33 39 -4 65 14 13 20 29 18 49 -3 30 -5 31 -48 31 -54 0 -61 -17
-33 -73 31 -60 27 -67 -47 -70 -111 -5 -110 -7 -110 101 0 59 4 97 12 105 15
15 23 15 36 -1z m122 -247 c14 -14 33 -20 64 -20 36 0 46 -4 51 -20 10 -33
-10 -49 -55 -43 -36 5 -40 3 -50 -21 -5 -15 -10 -41 -10 -57 0 -25 -4 -29 -27
-29 -19 0 -41 16 -85 62 -32 35 -58 68 -58 75 0 18 34 33 74 33 25 0 38 6 46
20 6 11 15 20 20 20 6 0 19 -9 30 -20z m-2850 -55 l-23 -24 27 -32 c20 -24 24
-34 16 -44 -8 -10 -8 -19 -1 -34 6 -11 11 -46 11 -79 0 -49 -5 -66 -29 -99
-16 -22 -42 -50 -59 -61 -54 -39 -176 -54 -252 -31 -33 10 -134 79 -115 79 4
0 0 11 -8 24 -26 39 -30 90 -13 149 19 67 44 99 103 134 41 24 55 27 134 25
59 -1 98 -6 119 -17 30 -15 32 -15 61 10 39 32 60 33 29 0z m2468 -1 c56 -1
109 -5 117 -7 10 -4 12 -21 9 -66 -3 -54 -2 -61 14 -61 18 0 19 -18 16 -370
-1 -325 -4 -373 -18 -389 -10 -11 -16 -38 -17 -75 -1 -31 -5 -59 -9 -61 -5 -3
-6 3 -3 14 4 15 -1 18 -29 16 -18 -1 -41 -5 -52 -10 -12 -5 -21 -3 -26 6 -7
11 -10 10 -16 -4 -3 -9 -12 -17 -20 -17 -12 0 -12 4 -2 20 11 17 10 22 -2 30
-9 6 -16 6 -18 0 -2 -6 -11 -10 -20 -10 -13 0 -12 -3 4 -15 18 -14 18 -14 -8
-15 -14 0 -34 -3 -43 -6 -15 -6 -15 -4 -4 14 11 18 10 24 -5 41 -11 12 -14 21
-9 21 6 0 16 -7 23 -15 11 -14 15 -13 28 6 12 17 22 20 48 16 22 -4 37 -1 45
9 10 12 9 16 -9 20 -12 4 -18 12 -16 19 4 10 -5 13 -33 11 -21 -1 -44 -5 -51
-10 -6 -4 -30 -8 -52 -8 -42 0 -53 -12 -20 -21 11 -3 20 -10 20 -17 0 -6 -4
-9 -9 -5 -12 7 -61 -38 -61 -57 0 -8 6 -20 13 -28 10 -12 9 -12 -5 -1 -13 10
-18 28 -18 64 0 30 -5 54 -14 61 -11 9 -12 30 -6 101 3 50 3 94 -1 99 -10 11
1 548 12 561 13 17 21 77 9 70 -6 -4 -10 9 -10 34 l0 40 53 4 c28 2 61 1 72
-2 11 -2 66 -6 123 -7z m-2240 -111 c2 -13 -1 -23 -7 -23 -7 0 -11 -27 -11
-70 0 -38 4 -70 9 -70 5 0 13 -14 16 -32 9 -38 -12 -58 -59 -58 -51 0 -89 51
-47 65 39 12 44 165 6 165 -21 0 -28 19 -14 36 8 10 27 14 58 12 39 -3 46 -6
49 -25z m460 19 c24 -4 13 -40 -17 -50 -27 -10 -29 -13 -35 -92 -9 -98 -13
-110 -36 -110 -23 0 -30 27 -30 118 0 72 0 73 -30 83 -33 12 -41 45 -12 51 17
3 135 3 160 0z m-332 -24 c11 -13 28 -35 37 -50 10 -16 22 -28 28 -28 6 0 7 4
4 10 -3 5 -1 28 5 50 9 33 15 40 35 40 29 0 32 -22 25 -155 -4 -77 -8 -90 -23
-93 -19 -4 -67 33 -67 52 -1 12 -45 66 -55 66 -3 0 -2 -24 1 -53 5 -42 3 -55
-10 -66 -15 -12 -19 -12 -31 0 -17 18 -27 116 -19 192 6 50 9 57 29 57 12 0
30 -10 41 -22z m451 10 c4 -7 8 -52 8 -99 0 -57 5 -92 14 -103 21 -25 6 -46
-33 -46 -19 0 -41 3 -50 6 -17 7 -22 44 -6 44 6 0 10 28 10 65 0 37 -4 65 -10
65 -14 0 -12 48 3 65 15 18 53 19 64 3z m2018 -69 c11 0 40 0 64 1 60 1 81
-24 81 -101 0 -52 -3 -60 -32 -84 -27 -23 -33 -25 -46 -11 -13 13 -12 18 7 49
25 41 27 70 6 87 -13 10 -19 10 -35 -5 -10 -9 -20 -27 -22 -38 -5 -37 -35 -32
-48 7 -13 41 -22 49 -44 40 -21 -8 -21 -72 1 -96 12 -14 14 -23 6 -40 -10 -23
-10 -23 -47 14 -32 32 -36 42 -36 86 0 44 4 54 30 76 24 20 38 24 63 20 18 -3
41 -5 52 -5z m132 -237 c18 -11 20 -177 2 -198 -11 -13 -30 -15 -119 -10 -58
3 -115 5 -127 6 -13 0 -23 4 -23 10 0 19 57 38 131 43 42 2 82 7 88 11 6 4 11
35 11 70 0 74 7 87 37 68z m-3084 -204 c74 -12 91 -23 122 -80 20 -36 30 -35
62 2 27 33 72 63 57 39 -4 -8 -21 -25 -37 -38 -25 -21 -28 -29 -23 -62 4 -26
2 -40 -9 -49 -19 -16 -19 -31 0 -24 8 4 15 2 15 -4 0 -5 -7 -12 -15 -15 -8 -4
-21 -23 -30 -44 -21 -50 -70 -100 -113 -114 -56 -18 -202 -16 -239 4 -132 70
-162 225 -65 329 20 21 46 41 57 43 11 3 36 9 55 14 50 13 81 13 163 -1z
m2860 -40 c12 -7 33 -21 46 -30 33 -25 53 -23 108 12 56 35 69 37 78 9 7 -21
-9 -41 -50 -65 -30 -17 -27 -27 15 -57 46 -32 54 -67 17 -67 -13 0 -45 14 -71
32 l-48 31 -63 -34 c-51 -27 -67 -31 -76 -22 -10 10 -4 21 29 52 47 45 51 57
22 66 -31 10 -62 55 -49 71 14 17 14 17 42 2z m-2532 -38 c23 -13 25 -33 4
-50 -11 -9 -15 -33 -15 -87 0 -56 4 -75 15 -79 38 -15 -2 -58 -47 -50 -13 3
-29 5 -35 5 -15 1 -17 37 -3 46 6 3 10 42 10 86 0 46 -4 79 -10 79 -11 0 -14
43 -3 53 10 11 62 8 84 -3z m272 -7 c18 -17 19 -17 28 0 8 14 25 17 89 17 68
0 81 -3 90 -19 12 -23 -10 -51 -41 -51 -14 0 -19 -7 -19 -27 -2 -116 -7 -164
-17 -175 -26 -25 -38 8 -38 105 -1 90 -1 92 -25 95 -14 2 -30 8 -36 13 -18 15
-24 -13 -24 -105 0 -67 -3 -86 -18 -99 -17 -16 -20 -16 -38 2 -29 29 -54 60
-54 70 0 5 -6 14 -14 20 -17 14 -26 -4 -26 -52 0 -41 -14 -62 -34 -54 -14 5
-16 26 -16 137 0 155 7 162 82 78 l47 -53 1 42 c0 24 7 48 16 57 19 20 23 20
47 -1z m402 -7 c20 -13 25 -25 25 -59 0 -37 -6 -48 -40 -82 -43 -42 -43 -55 1
-55 33 0 48 -22 29 -45 -18 -22 -155 -21 -177 1 -14 14 -12 20 29 62 83 87
107 116 102 124 -7 12 -72 10 -79 -2 -10 -16 -55 -11 -62 7 -4 11 4 26 27 46
28 25 39 29 76 24 24 -2 55 -12 69 -21z m2074 -210 c33 -34 33 -36 28 -97 -4
-34 -9 -64 -12 -67 -19 -20 -255 -28 -273 -10 -7 7 -12 40 -12 79 0 51 5 72
20 92 23 29 36 32 140 35 74 2 77 1 109 -32z m10 -215 c29 -18 4 -40 -51 -43
l-53 -3 0 -50 0 -50 32 2 c41 4 83 -12 83 -31 0 -25 -21 -30 -113 -28 -88 3
-90 3 -129 41 -53 50 -53 79 -2 132 l38 39 91 0 c49 0 96 -4 104 -9z m-2712
-79 c-31 -32 -57 -61 -57 -65 0 -4 16 -7 36 -7 26 0 43 -8 67 -31 30 -30 30
-32 12 -45 -16 -12 -22 -12 -41 1 -30 19 -73 19 -81 0 -7 -21 -2 -25 49 -36
85 -20 112 -78 61 -131 -31 -32 -85 -38 -133 -13 -29 15 -46 47 -35 65 11 17
43 11 59 -11 18 -27 66 -19 66 10 0 21 -19 31 -59 31 -33 0 -61 28 -70 70 l-6
31 -30 -28 c-19 -17 -40 -27 -55 -26 -14 1 -19 0 -13 -3 15 -7 7 -75 -13 -115
-17 -35 -78 -87 -112 -96 -15 -4 -65 -8 -112 -8 -67 0 -93 4 -120 20 -119 67
-153 173 -90 282 52 91 157 130 284 103 65 -13 113 -49 147 -110 40 -70 47
-67 203 84 101 97 131 117 43 28z m257 -93 c25 -19 26 -25 26 -108 0 -74 -3
-93 -21 -115 -19 -24 -27 -26 -89 -26 -38 0 -72 4 -75 10 -8 13 -9 236 0 249
3 6 35 11 69 11 49 0 69 -5 90 -21z m213 -1 c21 -19 23 -30 23 -114 0 -88 -1
-94 -26 -113 -40 -32 -113 -29 -148 5 -24 25 -26 33 -26 110 0 81 1 83 33 108
42 34 110 36 144 4z m1363 12 c0 -5 -8 -10 -18 -10 -10 0 -23 -5 -30 -12 -13
-13 -16 -32 -4 -24 5 3 8 -21 9 -52 1 -104 2 -108 28 -120 40 -18 29 -32 -24
-32 -44 0 -49 2 -44 20 4 16 0 20 -21 20 l-26 0 0 99 c0 99 0 99 28 109 36 14
102 15 102 2z m402 -8 c20 -8 27 -19 30 -44 2 -21 8 -33 18 -33 8 0 16 -10 18
-22 2 -15 -2 -23 -12 -23 -16 0 -40 -35 -32 -48 3 -4 1 -14 -4 -22 -7 -11 -14
-12 -34 -2 -23 10 -25 16 -21 58 2 28 -2 61 -10 81 -13 30 -12 33 3 34 9 0 -3
9 -28 19 l-45 18 45 -2 c25 -2 57 -8 72 -14z m-135 -8 c23 0 44 -2 47 -5 11
-10 17 -101 11 -140 -6 -32 -11 -39 -30 -39 -51 0 -55 7 -55 93 0 57 -3 78
-11 70 -11 -11 -13 -66 -5 -120 l5 -33 -81 0 -80 0 7 33 c4 17 7 39 7 48 0 12
9 15 41 14 55 -3 62 3 35 25 l-23 19 28 1 c24 0 27 -4 27 -32 1 -27 2 -30 11
-16 19 33 -6 58 -56 58 -25 0 -45 -5 -48 -12 -3 -9 -10 -7 -21 7 -14 19 -15
16 -16 -45 0 -85 -8 -110 -32 -110 -47 0 -58 17 -58 90 0 97 7 102 131 98 54
-1 101 1 105 5 4 4 10 4 13 -1 3 -4 25 -8 48 -8z m-977 -64 c0 -5 -3 -10 -7
-12 -5 -1 -6 -30 -3 -63 5 -56 7 -58 17 -34 7 15 9 37 6 50 -5 19 -3 21 15 17
17 -5 22 -2 22 13 0 21 39 28 41 7 1 -7 2 -22 3 -33 0 -13 9 -21 24 -23 28 -4
30 -42 2 -49 -20 -5 -22 -10 -24 -47 -1 -13 -12 -22 -31 -28 -40 -11 -55 -4
-55 26 0 14 -4 28 -10 31 -6 4 -10 -7 -10 -24 0 -26 -4 -31 -24 -31 -23 0 -24
3 -25 79 -1 60 2 83 14 95 15 15 14 16 -9 16 -32 0 -34 17 -3 22 28 5 57 -2
57 -12z m-390 -5 c0 -8 5 -15 10 -15 6 0 10 7 10 15 0 11 9 14 33 11 22 -2 32
-8 31 -20 0 -9 -1 -50 -2 -91 -2 -60 -5 -77 -18 -82 -23 -8 -47 9 -54 38 -6
23 -6 23 -12 3 -3 -12 -2 -28 3 -35 10 -16 2 -29 -17 -29 -8 0 -13 4 -10 9 3
5 -1 14 -9 21 -12 10 -15 9 -15 -4 0 -22 -20 -21 -21 2 -1 9 0 47 1 83 1 39
-3 70 -9 73 -6 4 -11 14 -11 22 0 10 12 14 45 14 33 0 45 -4 45 -15z m768
-122 c3 -28 -5 -41 -47 -86 -28 -30 -51 -57 -51 -60 0 -3 21 -7 48 -9 39 -3
47 -6 47 -23 0 -18 -7 -20 -85 -20 l-85 0 -3 35 c-2 31 4 41 48 85 27 27 50
53 50 57 0 4 -20 8 -44 8 -47 0 -62 11 -52 36 5 12 22 14 88 12 l83 -3 3 -32z
m180 -199 c-43 -42 -78 -79 -78 -83 0 -12 214 0 225 13 21 24 58 51 50 36 -5
-8 -17 -21 -28 -29 -16 -12 -17 -15 -5 -22 18 -10 88 0 88 12 0 5 -4 9 -9 9
-11 0 -21 38 -14 56 10 26 41 14 97 -37 35 -32 56 -59 56 -73 0 -24 -105 -125
-132 -126 -21 0 -32 33 -19 59 13 23 -8 31 -91 31 -56 0 -57 0 -123 -65 -37
-36 -74 -65 -83 -65 -12 0 -8 6 11 19 27 17 107 98 107 107 0 2 -29 4 -66 4
-56 0 -70 -4 -100 -27 l-34 -28 0 -171 c0 -94 3 -173 6 -177 3 -3 16 -2 28 3
24 9 56 -4 56 -23 0 -17 -112 -127 -130 -127 -18 0 -130 110 -130 127 0 21 38
35 61 23 11 -7 23 -9 26 -6 3 3 7 84 8 180 l4 174 -28 21 c-20 16 -28 31 -29
61 -5 81 87 130 151 80 14 -11 29 -20 34 -20 5 0 40 32 78 70 38 39 74 70 80
70 5 0 -25 -35 -67 -76z m486 30 c9 -3 16 -11 16 -18 0 -6 7 -20 15 -30 13
-18 16 -18 40 -2 14 9 25 23 25 32 0 10 7 14 23 12 34 -5 28 -61 -11 -102 -23
-23 -32 -42 -34 -76 -2 -37 -6 -45 -23 -45 -17 0 -20 8 -23 52 -3 43 -8 56
-33 77 -22 18 -29 33 -29 59 0 44 7 52 34 41z m-1408 -86 c3 -4 0 -8 -5 -8 -6
0 -11 -5 -11 -12 0 -6 7 -4 18 5 18 17 78 24 68 9 -3 -4 -6 -49 -8 -100 -3
-92 -3 -92 -29 -92 -32 0 -55 41 -39 70 7 13 7 21 0 25 -5 3 -11 -2 -12 -12
-4 -45 -5 -59 -7 -75 -2 -24 -22 -23 -28 2 -7 25 -18 26 -28 3 -8 -18 -10 -13
-32 74 -3 13 -2 31 3 40 10 25 11 30 13 57 1 22 5 24 46 24 25 -1 48 -5 51
-10z m462 -35 c2 -21 9 -33 18 -33 23 0 19 -72 -6 -88 -11 -7 -20 -20 -20 -30
0 -11 -15 -24 -40 -35 -50 -21 -54 -21 -45 1 18 45 31 132 21 142 -8 8 -7 13
3 19 11 7 11 12 0 30 -8 11 -17 21 -21 21 -4 0 -9 -42 -10 -92 -3 -85 -5 -93
-23 -93 -19 0 -20 7 -20 93 0 91 0 92 -25 93 -25 1 -25 1 -2 7 12 4 55 5 95 2
l72 -5 3 -32z m-1563 -42 c48 -22 79 -54 100 -104 10 -25 22 -37 35 -37 11 0
20 -4 20 -10 0 -5 -12 -10 -26 -10 -15 0 -23 -4 -18 -11 3 -6 15 -9 25 -6 25
7 24 -10 -1 -18 -14 -4 -20 -15 -20 -36 0 -16 -9 -47 -20 -69 -22 -43 -76 -88
-82 -68 -3 7 -10 8 -17 4 -10 -7 -11 -10 -1 -16 23 -14 -155 -23 -207 -11 -54
13 -111 59 -138 111 -49 94 8 242 109 286 48 20 192 18 241 -5z m387 -99 c53
-48 20 -81 -46 -47 -37 19 -55 19 -63 -1 -8 -20 13 -34 53 -34 42 0 77 -39 80
-89 1 -32 -3 -41 -26 -54 -43 -26 -93 -28 -129 -6 -33 20 -36 26 -22 48 8 13
15 13 51 1 30 -10 44 -10 52 -2 17 17 -6 38 -51 46 -44 7 -66 28 -76 74 -6 30
-3 37 26 63 45 40 106 41 151 1z m214 -6 c13 -15 24 -36 24 -47 0 -10 2 -19 4
-19 2 0 24 20 48 45 25 25 52 45 59 45 17 0 59 -36 82 -70 19 -27 24 -153 8
-179 -18 -28 -40 -4 -43 46 l-3 48 -40 0 -40 0 -3 -48 c-2 -31 -8 -50 -18 -54
-22 -8 -44 16 -45 51 0 26 -2 28 -8 11 -18 -43 -50 -60 -110 -59 -92 1 -89 -3
-90 125 0 72 4 118 12 127 8 10 28 13 75 10 55 -4 68 -8 88 -32z m2152 -36
c59 -26 153 -101 184 -147 61 -87 79 -183 54 -281 -33 -128 -96 -209 -204
-263 -90 -44 -208 -52 -290 -20 -178 71 -258 186 -256 371 0 68 5 95 24 135
55 115 151 196 260 219 79 17 170 11 228 -14z m-1210 -151 c21 -8 22 -14 22
-106 l0 -98 -49 -3 -50 -3 9 31 c5 17 5 54 0 83 -5 34 -4 56 3 65 8 10 7 16
-4 23 -8 5 -17 9 -20 9 -3 0 -4 -40 -1 -89 3 -62 0 -91 -8 -96 -6 -4 -15 -3
-20 1 -11 13 -19 169 -9 187 9 15 80 13 127 -4z m-370 -6 c-21 -5 -21 -5 -18
-109 1 -60 -2 -83 -13 -92 -12 -10 -16 -10 -21 3 -3 8 -13 15 -22 15 -11 0
-15 6 -12 18 3 9 1 38 -3 62 l-7 45 1 -40 c0 -22 -2 -45 -6 -51 -3 -6 5 -26
18 -44 29 -39 30 -44 11 -37 -7 3 -19 0 -25 -6 -6 -6 -14 -7 -18 -2 -5 4 -2
10 5 12 19 7 14 23 -8 23 -11 0 -20 4 -20 10 0 5 -6 7 -14 4 -11 -4 -14 15
-15 95 l-1 101 92 -2 c51 -1 85 -3 76 -5z m670 -373 c5 0 15 11 22 25 8 16 22
25 37 25 31 0 30 -29 -2 -80 -26 -42 -25 -54 14 -102 14 -18 8 -68 -8 -68 -5
0 -21 16 -37 35 l-27 35 -35 -36 c-34 -35 -34 -35 -49 -15 -12 19 -11 24 12
58 31 47 31 59 0 105 -30 44 -31 54 -7 67 13 8 23 5 44 -19 15 -17 32 -30 36
-30z m-1448 -35 c23 -21 26 -48 8 -63 -9 -7 -26 -4 -56 10 -39 19 -45 19 -59
5 -22 -21 -8 -37 33 -37 52 0 99 -49 90 -92 -10 -49 -37 -68 -99 -68 -40 0
-59 5 -75 20 -44 41 -17 74 39 46 23 -12 36 -13 51 -5 28 15 17 33 -30 44 -48
12 -92 50 -92 79 1 27 28 62 60 75 35 15 107 7 130 -14z m204 4 c51 -40 21
-80 -42 -54 -47 20 -72 -2 -72 -65 0 -70 31 -97 74 -65 11 8 30 15 43 15 30 0
30 -26 1 -57 -30 -32 -116 -33 -153 -1 -23 20 -25 28 -25 110 0 81 2 91 25
113 32 33 110 35 149 4z m97 -6 c1 -10 1 -48 -1 -85 -3 -102 1 -108 69 -108
42 0 62 -5 72 -16 24 -30 -13 -44 -104 -39 -43 2 -81 6 -84 9 -3 3 -6 52 -5
108 1 158 -1 148 27 148 17 0 25 -6 26 -17z"/>
<path d="M5208 2060 c-12 -8 -18 -24 -18 -50 0 -47 11 -52 105 -48 l60 3 3 39
c2 21 0 42 -5 47 -13 13 -126 20 -145 9z"/>
</g>
</svg>
